# AST/ASF file generated using VICON BodyLanguage
# -----------------------------------------------
:version 1.10
:name VICON
:units
  mass 1.0
  length 0.45
  angle deg
:documentation
   .ast/.asf automatically generated from VICON data using
   VICON BodyBuilder and BodyLanguage model FoxedUp or BRILLIANT.MOD
:root
   order TX TY TZ RX RY RZ
   axis XYZ
   position 0 0 0  
   orientation 0 0 0 
:bonedata
  begin
     id 1 
     name lhipjoint
     direction 0.630082 -0.636569 0.44472 
     length 2.82754 
     axis 0 0 0  XYZ
  end
  begin
     id 2 
     name lfemur
     direction 0.34202 -0.939693 0  
     length 7.26371  
     axis 0 0 20  XYZ
    dof rx ry rz
    limits (-160.0 20.0)
           (-70.0 70.0)
           (-60.0 70.0)
  end
  begin
     id 3 
     name ltibia
     direction 0.34202 -0.939693 0   
     length 7.88616   
     axis 0 0 20   XYZ
    dof rx
    limits (-10.0 170.0)
  end
  begin
     id 4 
     name lfoot
     direction 0.0603448 -0.165796 0.984312   
     length 1.77861   
     axis -90 7.62852e-016 20   XYZ
    dof rx rz
    limits (-45.0 90.0)
           (-70.0 20.0)
  end
  begin
     id 5 
     name ltoes
     direction 1.53577e-011 -4.21876e-011 1   
     length 0.902235   
     axis -90 7.62852e-016 20   XYZ
    dof rx
    limits (-90.0 20.0)
  end
  begin
     id 6 
     name rhipjoint
     direction -0.656778 -0.61817 0.431866   
     length 2.9117  
     axis 0 0 0  XYZ 
  end
  begin
     id 7 
     name rfemur
     direction -0.34202 -0.939693 0   
     length 6.81603   
     axis 0 0 -20   XYZ
    dof rx ry rz
    limits (-160.0 20.0)
           (-70.0 70.0)
           (-70.0 60.0)
  end
  begin
     id 8 
     name rtibia
     direction -0.34202 -0.939693 0   
     length 8.05997   
     axis 0 0 -20   XYZ
    dof rx
    limits (-10.0 170.0)
 end
 begin
     id 9 
     name rfoot
     direction -0.0862404 -0.236944 0.967688   
     length 1.84899  
     axis -90 -7.62852e-016 -20   XYZ
    dof rx rz
    limits (-45.0 90.0)
           (-20.0 70.0)
  end
  begin
     id 10 
     name rtoes
     direction -1.53561e-011 -4.21798e-011 1   
     length 0.931579   
     axis -90 -7.62852e-016 -20   XYZ
    dof rx
    limits (-90.0 20.0)
  end
  begin
     id 11 
     name lowerback
     direction -0.0110203 0.991769 -0.127564   
     length 2.05686   
     axis 0 0 0   XYZ
    dof rx ry rz
    limits (-20.0 45.0)
           (-30.0 30.0)
           (-30.0 30.0)
  end
  begin
     id 12 
     name upperback
     direction 0.0109719 0.99993 -0.00432479   
     length 2.06234   
     axis 0 0 0   XYZ
    dof rx ry rz
    limits (-20.0 45.0)
           (-30.0 30.0)
           (-30.0 30.0)
  end
  begin
     id 13 
     name thorax
     direction 0.0173308 0.998351 0.0547306   
     length 2.09856   
     axis 0 0 0   XYZ
    dof rx ry rz
    limits (-20.0 45.0)
           (-30.0 30.0)
           (-30.0 30.0)
  end
  begin
     id 14 
     name lowerneck
     direction -0.0311736 0.989033 0.144366   
     length 1.98151   
     axis 0 0 0   XYZ
    dof rx ry rz
    limits (-20.0 45.0)
           (-30.0 30.0)
           (-30.0 30.0)
  end
  begin
     id 15 
     name upperneck
     direction 0.0421057 0.975772 -0.214698   
     length 2.01457   
     axis 0 0 0   XYZ
    dof rx ry rz
    limits (-20.0 45.0)
           (-30.0 30.0)
           (-30.0 30.0)
  end
  begin
     id 16
     name head
     direction 0.0136911 0.995958 -0.0887718  
     length 2.03562  
     axis 0 0 0   XYZ
    dof rx ry rz
    limits (-20.0 45.0)
           (-30.0 30.0)
           (-30.0 30.0)
  end
  begin
     id 17 
     name lclavicle
     direction 0.915335 0.396201 0.0720134  
     length 4.16217  
     axis 0 0 0   XYZ
    dof ry rz
    limits (-20.0 10.0)
           (0.0 20.0)
  end
  begin
     id 18 
     name lhumerus
     direction 1 -4.48965e-011 6.383e-018   
     length 4.93042   
     axis -180 -30 -90   XYZ
    dof rx ry rz
    limits (-60.0 90.0)
           (-90.0 90.0)
           (-90.0 90.0)
  end
  begin
     id 19
     name lradius
     direction 1 -4.48972e-011 8.8689e-027   
     length 3.68177   
     axis -180 -30 -90   XYZ
    dof rx
    limits (-10.0 170.0)
  end
  begin
     id 20
     name lwrist
     direction 1 -4.48953e-011 1.17971e-026   
     length 1.84089   
     axis -7.69454e-015 90 90   XYZ
    dof ry
    limits (-180.0 0.0)
 end
  begin
     id 21 
     name lhand
     direction 1 -4.49027e-011 2.35802e-026   
     length 0.721479   
     axis -1.50533e-014 90 90   XYZ
    dof rx rz
    limits (-90.0 90.0)
           (-45.0 45.0)
  end
  begin
     id 22 
     name lfingers
     direction 1 -4.48915e-011 4.72027e-026   
     length 0.581675   
     axis -3.01059e-014 90 90   XYZ
    dof rx
    limits (0.0 90.0)
  end
  begin
     id 23
     name lthumb
     direction 0.707107 -6.34948e-011 0.707107   
     length 0.835172   
     axis -90 45 -5.12164e-014   XYZ
    dof rx rz
    limits (-45.0 45.0)
           (-45.0 45.0)
  end
  begin
     id 24 
     name rclavicle
     direction -0.882781 0.469197 0.0234974   
     length 3.95647  
     axis 0 0 0   XYZ 
    dof ry rz
    limits (-10.0 20.0)
           (-20.0 0.0)
  end
  begin
     id 25 
     name rhumerus
     direction -1 -4.48965e-011 -1.54906e-018  
     length 5.07905   
     axis -180 30 90   XYZ
    dof rx ry rz
    limits (-90.0 60.0)
           (-90.0 90.0)
           (-90.0 90.0)
  end
  begin
     id 26 
     name rradius
     direction -1 -4.48972e-011 5.47489e-027   
     length 3.54394   
     axis -180 30 90   XYZ
    dof rx
    limits (-10.0 170.0)
  end
  begin
     id 27 
     name rwrist
     direction -1 -4.48955e-011 1.17969e-026   
     length 1.77197   
     axis -7.69454e-015 -90 -90   XYZ
    dof ry
    limits (-180.0 0.0)
  end
  begin
     id 28
     name rhand
     direction -1 -4.48982e-011 2.35888e-026   
     length 0.681156   
     axis -1.50533e-014 -90 -90   XYZ
    dof rx rz
    limits (-90.0 90.0)
           (-45.0 45.0)
  end
  begin
     id 29
     name rfingers
     direction -1 -4.48955e-011 4.71877e-026   
     length 0.549165   
     axis -3.01059e-014 -90 -90   XYZ
    dof rx
    limits (0.0 90.0)
  end
  begin
     id 30
     name rthumb
     direction -0.707107 -6.3491e-011 0.707107   
     length 0.788495   
     axis -90 -45 5.12164e-014   XYZ
    dof rx rz
    limits (-45.0 45.0)
           (-45.0 45.0)
  end
:hierarchy
  begin
    root lhipjoint rhipjoint lowerback
    lhipjoint lfemur
    lfemur ltibia
    ltibia lfoot
    lfoot ltoes
    rhipjoint rfemur
    rfemur rtibia
    rtibia rfoot
    rfoot rtoes
    lowerback upperback
    upperback thorax
    thorax lowerneck lclavicle rclavicle
    lowerneck upperneck
    upperneck head
    lclavicle lhumerus
    lhumerus lradius
    lradius lwrist
    lwrist lhand lthumb
    lhand lfingers
    rclavicle rhumerus
    rhumerus rradius
    rradius rwrist
    rwrist rhand rthumb
    rhand rfingers
  end

#!OML:ASF H:\Bending\Project 1\Capture day 1\Session 1\Subject.ASF
:FULLY-SPECIFIED
:DEGREES
65
root -11.778 18.0769 -16.7796 131.033 87.0812 102.448
lowerback 39.2737 -3.17631 3.12111
upperback 9.35016 -1.33129 1.1277
thorax -8.7257 -0.17131 0.0426913
lowerneck -19.0897 -2.36105 -4.75271
upperneck 7.85621 -1.92748 0.00180904
head 5.49019 -1.07976 0.565669
rclavicle -4.21423e-014 -4.81059e-014
rhumerus 25.9587 16.4815 -71.7653
rradius 27.0452
rwrist 18.7948
rhand -22.9613 -22.3331
rfingers 7.12502
rthumb 3.48046 -52.2844
lclavicle -4.21423e-014 -4.81059e-014
lhumerus 30.4962 -19.1133 76.4155
lradius 25.0487
lwrist 29.7041
lhand -14.1652 13.1844
lfingers 7.12502
lthumb 11.9698 42.8221
rfemur -45.779 -13.656 15.274
rtibia 24.7008
rfoot -7.93542 -8.8224
rtoes 1.03313
lfemur -48.6914 -3.36079 -13.3661
ltibia 28.9115
lfoot -9.64857 1.69797
ltoes -2.04799
66
root -11.7945 18.0607 -16.7933 128.821 87.0577 99.793
lowerback 40.2582 -3.3039 2.96417
upperback 9.63382 -1.44731 1.04238
thorax -8.72399 -0.195877 0.0906042
lowerneck -18.7861 -2.46254 -4.8715
upperneck 6.90865 -2.09825 0.347855
head 5.14956 -1.12495 0.684301
rclavicle -7.55382e-015 -1.45113e-014
rhumerus 27.813 16.2335 -71.5169
rradius 27.2381
rwrist 18.5222
rhand -23.0404 -22.7657
rfingers 7.12502
rthumb 3.40407 -52.7183
lclavicle -7.55382e-015 -1.45113e-014
lhumerus 32.779 -19.9762 74.6111
lradius 25.078
lwrist 30.3435
lhand -14.4497 13.3513
lfingers 7.12502
lthumb 11.6954 43.0048
rfemur -46.7065 -13.4751 15.1249
rtibia 25.3688
rfoot -8.21939 -8.92788
rtoes 2.12797
lfemur -49.5508 -3.34204 -13.4214
ltibia 29.4714
lfoot -9.71194 1.79823
ltoes -2.37325
67
root -11.8073 18.0424 -16.8072 126.407 87.0601 96.9219
lowerback 41.2455 -3.44603 2.82139
upperback 9.89268 -1.58168 0.93002
thorax -8.74079 -0.229449 0.11065
lowerneck -18.5874 -2.53574 -4.97457
upperneck 6.06495 -2.22601 0.721423
head 4.85999 -1.14986 0.811985
rclavicle 1.11319e-014 -1.16289e-014
rhumerus 29.8349 15.9355 -71.443
rradius 27.1375
rwrist 18.4623
rhand -23.1908 -22.9865
rfingers 7.12502
rthumb 3.25883 -52.9413
lclavicle 1.11319e-014 -1.16289e-014
lhumerus 34.8147 -20.4439 73.0016
lradius 25.3157
lwrist 30.9763
lhand -15.3508 13.3861
lfingers 7.12502
lthumb 10.8264 43.0871
rfemur -47.6637 -13.3597 15.1046
rtibia 25.9906
rfoot -8.28357 -9.05277
rtoes 1.22893
lfemur -50.4324 -3.30526 -13.4419
ltibia 30.075
lfoot -9.81187 1.8963
ltoes -2.50668
68
root -11.8166 18.0222 -16.8208 123.987 87.0378 93.9725
lowerback 42.1614 -3.58323 2.68878
upperback 10.1334 -1.71748 0.790759
thorax -8.74689 -0.264549 0.0968896
lowerneck -18.557 -2.60092 -5.03487
upperneck 5.36197 -2.33706 1.09144
head 4.64179 -1.16878 0.931154
rclavicle -1.15295e-014 -4.06515e-014
rhumerus 31.8072 15.5965 -71.4246
rradius 26.9883
rwrist 18.4898
rhand -23.3685 -23.021
rfingers 7.12502
rthumb 3.08724 -52.9784
lclavicle -1.15295e-014 -4.06515e-014
lhumerus 36.6146 -20.5173 71.7375
lradius 25.7068
lwrist 31.5426
lhand -16.9026 13.2914
lfingers 7.12502
lthumb 9.32933 43.0649
rfemur -48.7428 -13.3872 15.2078
rtibia 26.6041
rfoot -8.15432 -9.13189
rtoes -1.36796
lfemur -51.3941 -3.24688 -13.4829
ltibia 30.6957
lfoot -9.91197 1.94623
ltoes -2.25833
69
root -11.823 18.0009 -16.8333 121.808 86.9582 91.1444
lowerback 42.9349 -3.69957 2.56575
upperback 10.3519 -1.84188 0.626464
thorax -8.72905 -0.296537 0.0450625
lowerneck -18.6774 -2.67459 -5.04083
upperneck 4.7943 -2.45642 1.43783
head 4.48984 -1.19453 1.03155
rclavicle -1.59028e-014 -3.38431e-014
rhumerus 33.8561 15.1532 -71.5059
rradius 26.6301
rwrist 18.6415
rhand -23.5095 -22.9575
rfingers 7.12502
rthumb 2.95107 -52.9168
lclavicle -1.59028e-014 -3.38431e-014
lhumerus 38.2064 -20.2758 70.8801
lradius 26.1841
lwrist 32.0531
lhand -18.9905 13.088
lfingers 7.12502
lthumb 7.31428 42.9416
rfemur -50.0019 -13.5754 15.3974
rtibia 27.2404
rfoot -7.9362 -9.10411
rtoes -4.70211
lfemur -52.4774 -3.14962 -13.5927
ltibia 31.3058
lfoot -9.97746 1.91043
ltoes -1.58622
70
root -11.8269 17.9791 -16.8437 120.089 86.8211 88.6433
lowerback 43.5198 -3.77626 2.43483
upperback 10.5354 -1.94209 0.461741
thorax -8.69127 -0.321814 -0.0157116
lowerneck -18.8301 -2.75907 -5.0104
upperneck 4.30185 -2.59007 1.74446
head 4.36669 -1.23092 1.11176
rclavicle 2.44505e-014 -6.41081e-015
rhumerus 35.5657 14.7274 -71.4729
rradius 26.4965
rwrist 18.672
rhand -23.5473 -22.8999
rfingers 7.12502
rthumb 2.91454 -52.8598
lclavicle 2.44505e-014 -6.41081e-015
lhumerus 39.6124 -19.8215 70.4272
lradius 26.6756
lwrist 32.5682
lhand -21.354 12.8138
lfingers 7.12502
lthumb 5.03254 42.734
rfemur -51.442 -13.8822 15.6302
rtibia 27.9113
rfoot -7.75926 -8.94645
rtoes -7.6116
lfemur -53.6898 -2.99045 -13.7907
ltibia 31.8861
lfoot -9.98658 1.77029
ltoes -0.564243
71
root -11.8289 17.9579 -16.8511 118.939 86.6583 86.6035
lowerback 43.9383 -3.81424 2.29499
upperback 10.6758 -2.01716 0.314195
thorax -8.6519 -0.340929 -0.0661316
lowerneck -18.941 -2.84306 -4.96132
upperneck 3.83334 -2.72332 2.00516
head 4.24437 -1.27115 1.17495
rclavicle -3.37934e-014 -4.30617e-014
rhumerus 37.1379 14.2806 -71.442
rradius 26.3358
rwrist 18.6899
rhand -23.4437 -22.9096
rfingers 7.12502
rthumb 3.01464 -52.868
lclavicle -3.37934e-014 -4.30617e-014
lhumerus 40.8782 -19.2351 70.2956
lradius 27.1161
lwrist 33.1605
lhand -23.6579 12.5303
lfingers 7.12502
lthumb 2.80777 42.4916
rfemur -53.0024 -14.2293 15.8761
rtibia 28.607
rfoot -7.71331 -8.68686
rtoes -9.29813
lfemur -54.9989 -2.75475 -14.0569
ltibia 32.4316
lfoot -9.93814 1.53071
ltoes 0.687838
72
root -11.8292 17.9377 -16.8551 118.364 86.5165 85.0916
lowerback 44.2229 -3.80485 2.14149
upperback 10.7075 -2.06093 0.219655
thorax -8.69445 -0.355445 -0.0666025
lowerneck -18.592 -2.89396 -4.93657
upperneck 3.23014 -2.82654 2.21216
head 4.00971 -1.30406 1.23264
rclavicle 8.34896e-015 1.17283e-014
rhumerus 38.4713 13.9211 -71.3966
rradius 26.1148
rwrist 18.6344
rhand -23.196 -22.9947
rfingers 7.12502
rthumb 3.25379 -52.9497
lclavicle 8.34896e-015 1.17283e-014
lhumerus 41.8755 -18.5972 70.4906
lradius 27.4534
lwrist 33.8375
lhand -25.6039 12.3127
lfingers 7.12502
lthumb 0.928285 42.2905
rfemur -54.584 -14.5377 16.1242
rtibia 29.3049
rfoot -7.81461 -8.38786
rtoes -9.61877
lfemur -56.3453 -2.44978 -14.3407
ltibia 32.9526
lfoot -9.85073 1.21953
ltoes 2.02662
73
root -11.8284 17.9181 -16.8563 118.342 86.4344 84.1543
lowerback 44.4465 -3.76584 1.97542
upperback 10.6195 -2.08801 0.19412
thorax -8.85187 -0.371604 0.00704401
lowerneck -17.6815 -2.88064 -4.95564
upperneck 2.44593 -2.85836 2.35369
head 3.63236 -1.31096 1.28924
rclavicle 3.50855e-014 2.9445e-015
rhumerus 39.3296 13.8093 -71.1649
rradius 26.1181
rwrist 18.2855
rhand -22.8449 -23.1184
rfingers 7.12502
rthumb 3.59286 -53.0678
lclavicle 3.50855e-014 2.9445e-015
lhumerus 42.5787 -17.8824 70.9811
lradius 27.6526
lwrist 34.5379
lhand -27.0235 12.2276
lfingers 7.12502
lthumb -0.442747 42.2069
rfemur -56.089 -14.7595 16.3776
rtibia 29.9864
rfoot -8.01977 -8.11798
rtoes -9.00581
lfemur -57.6655 -2.10848 -14.5822
ltibia 33.4722
lfoot -9.75563 0.879569
ltoes 3.28915
74
root -11.8268 17.8984 -16.8557 118.865 86.425 83.8431
lowerback 44.7519 -3.73015 1.87389
upperback 10.6577 -2.06807 0.172142
thorax -8.88858 -0.358609 0.0305651
lowerneck -17.4756 -2.87616 -4.81071
upperneck 1.87317 -2.88383 2.36952
head 3.42338 -1.3153 1.27421
rclavicle -2.17669e-014 8.13775e-015
rhumerus 40.4913 13.4719 -71.0304
rradius 25.9748
rwrist 17.988
rhand -22.4806 -23.2001
rfingers 7.12502
rthumb 3.94469 -53.1434
lclavicle -2.17669e-014 8.13775e-015
lhumerus 43.6525 -17.0739 71.4449
lradius 27.7031
lwrist 35.2193
lhand -27.91 12.3125
lfingers 7.12502
lthumb -1.29901 42.2883
rfemur -57.4576 -14.8943 16.6458
rtibia 30.65
rfoot -8.2642 -7.92456
rtoes -8.16238
lfemur -58.9136 -1.78099 -14.7362
ltibia 34.0189
lfoot -9.68623 0.556677
ltoes 4.2771
75
root -11.8248 17.877 -16.8552 119.916 86.4727 84.1703
lowerback 45.1466 -3.71219 1.81692
upperback 10.6986 -2.04075 0.167611
thorax -8.94517 -0.341067 0.0478746
lowerneck -17.2025 -2.83036 -4.60054
upperneck 0.940751 -2.85801 2.17589
head 3.49167 -1.30928 1.32421
rclavicle -1.04362e-014 3.11843e-015
rhumerus 41.6918 13.1795 -70.9346
rradius 25.769
rwrist 17.6051
rhand -22.1612 -23.2227
rfingers 7.12502
rthumb 4.25307 -53.16
lclavicle -1.04362e-014 3.11843e-015
lhumerus 44.7418 -16.154 72.0615
lradius 27.6061
lwrist 35.7015
lhand -28.3757 12.5089
lfingers 7.12502
lthumb -1.74873 42.4815
rfemur -58.6842 -14.9832 16.9377
rtibia 31.3163
rfoot -8.4968 -7.81373
rtoes -7.68304
lfemur -60.0712 -1.51648 -14.7896
ltibia 34.6194
lfoot -9.66824 0.286429
ltoes 4.76308
76
root -11.823 17.8526 -16.8563 121.386 86.5426 85.0322
lowerback 45.6046 -3.73991 1.79292
upperback 10.7347 -2.04887 0.160185
thorax -9.02307 -0.338168 0.0613757
lowerneck -17.1487 -2.75372 -4.37587
upperneck 0.507099 -2.78336 2.02379
head 3.31485 -1.27058 1.2379
rclavicle 3.2054e-014 3.59055e-015
rhumerus 42.7816 13.1221 -70.6703
rradius 25.7294
rwrist 16.904
rhand -21.907 -23.2037
rfingers 7.12502
rthumb 4.49857 -53.136
lclavicle 3.2054e-014 3.59055e-015
lhumerus 45.7729 -15.0833 72.8572
lradius 27.3678
lwrist 35.8698
lhand -28.58 12.7168
lfingers 7.12502
lthumb -1.94607 42.6877
rfemur -59.8053 -15.0861 17.2547
rtibia 32.0199
rfoot -8.69949 -7.74701
rtoes -7.77445
lfemur -61.1433 -1.34466 -14.7652
ltibia 35.2917
lfoot -9.71423 0.0859348
ltoes 4.55049
